<svg width="32" height="32" viewBox="0 0 32 32" fill="none" xmlns="http://www.w3.org/2000/svg">
<path d="M14.6665 22.666H17.3332V17.3327H22.6665V14.666H17.3332V9.33268H14.6665V14.666H9.33317V17.3327H14.6665V22.666ZM15.9998 29.3327C14.1554 29.3327 12.4221 28.9827 10.7998 28.2827C9.17762 27.5827 7.7665 26.6327 6.5665 25.4327C5.3665 24.2327 4.4165 22.8216 3.7165 21.1993C3.0165 19.5771 2.6665 17.8438 2.6665 15.9993C2.6665 14.1549 3.0165 12.4216 3.7165 10.7993C4.4165 9.17713 5.3665 7.76602 6.5665 6.56602C7.7665 5.36602 9.17762 4.41602 10.7998 3.71602C12.4221 3.01602 14.1554 2.66602 15.9998 2.66602C17.8443 2.66602 19.5776 3.01602 21.1998 3.71602C22.8221 4.41602 24.2332 5.36602 25.4332 6.56602C26.6332 7.76602 27.5832 9.17713 28.2832 10.7993C28.9832 12.4216 29.3332 14.1549 29.3332 15.9993C29.3332 17.8438 28.9832 19.5771 28.2832 21.1993C27.5832 22.8216 26.6332 24.2327 25.4332 25.4327C24.2332 26.6327 22.8221 27.5827 21.1998 28.2827C19.5776 28.9827 17.8443 29.3327 15.9998 29.3327ZM15.9998 26.666C18.9776 26.666 21.4998 25.6327 23.5665 23.566C25.6332 21.4993 26.6665 18.9771 26.6665 15.9993C26.6665 13.0216 25.6332 10.4993 23.5665 8.43268C21.4998 6.36602 18.9776 5.33268 15.9998 5.33268C13.0221 5.33268 10.4998 6.36602 8.43317 8.43268C6.3665 10.4993 5.33317 13.0216 5.33317 15.9993C5.33317 18.9771 6.3665 21.4993 8.43317 23.566C10.4998 25.6327 13.0221 26.666 15.9998 26.666Z" fill="#104E5B"/>
</svg>
