<svg width="16" height="16" viewBox="0 0 16 16" fill="none" xmlns="http://www.w3.org/2000/svg">
<path d="M4.33333 7.33398L8 1.33398L11.6667 7.33398H4.33333ZM11.6667 14.6673C10.8333 14.6673 10.125 14.3757 9.54167 13.7923C8.95833 13.209 8.66667 12.5007 8.66667 11.6673C8.66667 10.834 8.95833 10.1257 9.54167 9.54232C10.125 8.95898 10.8333 8.66732 11.6667 8.66732C12.5 8.66732 13.2083 8.95898 13.7917 9.54232C14.375 10.1257 14.6667 10.834 14.6667 11.6673C14.6667 12.5007 14.375 13.209 13.7917 13.7923C13.2083 14.3757 12.5 14.6673 11.6667 14.6673ZM2 14.334V9.00065H7.33333V14.334H2ZM11.6667 13.334C12.1333 13.334 12.5278 13.1729 12.85 12.8507C13.1722 12.5284 13.3333 12.134 13.3333 11.6673C13.3333 11.2007 13.1722 10.8062 12.85 10.484C12.5278 10.1618 12.1333 10.0007 11.6667 10.0007C11.2 10.0007 10.8056 10.1618 10.4833 10.484C10.1611 10.8062 10 11.2007 10 11.6673C10 12.134 10.1611 12.5284 10.4833 12.8507C10.8056 13.1729 11.2 13.334 11.6667 13.334ZM3.33333 13.0007H6V10.334H3.33333V13.0007ZM6.7 6.00065H9.3L8 3.90065L6.7 6.00065Z" fill="#104E5B"/>
</svg>
