<svg width="21" height="20" viewBox="0 0 21 20" fill="none" xmlns="http://www.w3.org/2000/svg">
<path d="M20.1004 10.234C20.1004 9.57267 20.0364 8.89 19.9297 8.25H10.6924V12.026H15.983C15.7697 13.242 15.0657 14.3087 14.0204 14.9913L17.1777 17.4447C19.0337 15.7167 20.1004 13.1993 20.1004 10.234Z" fill="#4280EF"/>
<path d="M10.692 19.7918C13.3373 19.7918 15.556 18.9171 17.1773 17.4238L14.02 14.9918C13.1453 15.5891 12.0146 15.9304 10.692 15.9304C8.13198 15.9304 5.97731 14.2024 5.18798 11.8984L1.94531 14.3944C3.60931 17.7011 6.97998 19.7918 10.692 19.7918Z" fill="#34A353"/>
<path d="M5.18794 11.8775C4.78261 10.6615 4.78261 9.3388 5.18794 8.1228L1.94527 5.60547C0.558607 8.3788 0.558607 11.6428 1.94527 14.3948L5.18794 11.8775Z" fill="#F6B704"/>
<path d="M10.692 4.09007C12.0786 4.06874 13.444 4.60207 14.4466 5.56207L17.2413 2.74607C15.4706 1.08207 13.124 0.18607 10.692 0.207404C6.97998 0.207404 3.60931 2.29807 1.94531 5.60474L5.18798 8.12207C5.97731 5.79674 8.13198 4.09007 10.692 4.09007Z" fill="#E54335"/>
</svg>
