<svg width="189" height="45" viewBox="0 0 189 45" fill="none" xmlns="http://www.w3.org/2000/svg">
<path d="M46.5891 44.5523H44.2207C41.9804 44.5523 40.6362 44.4883 40.1881 44.3603C39.7401 44.2322 39.548 43.8482 39.548 43.2721C39.548 42.696 39.9961 41.9919 40.8282 41.0958C41.6603 40.2637 42.1724 39.4315 42.4285 38.5994C42.6205 37.7673 42.7485 35.527 42.7485 32.0064C42.7485 28.4859 42.6845 26.3736 42.4925 25.7335C42.3004 25.0934 41.7243 24.5173 40.7642 24.0693C39.8041 23.6212 39.292 23.0451 39.292 22.405C39.292 21.7649 39.7401 21.3169 40.6362 20.9968C42.6205 20.3567 44.8608 19.9727 47.2932 19.9727H47.6772C48.6374 19.9727 49.2135 20.3567 49.3415 21.1888C49.4055 21.6369 49.4695 24.4533 49.4695 29.6381C49.4695 34.8229 49.5975 37.8313 49.7895 38.6634C49.9816 39.4955 50.6217 40.4557 51.5178 41.4798C52.4779 42.44 52.926 43.0801 52.926 43.3361V43.6562C52.926 44.2963 50.8137 44.5523 46.5891 44.5523Z" fill="#F18D51"/>
<path d="M99.394 42.1839C99.394 43.7202 97.1537 44.5523 92.737 44.5523C91.2648 44.5523 90.3046 44.3603 89.7286 44.0402C89.1525 43.7202 88.8964 43.0801 88.8964 42.248L89.2165 40.6477C89.5365 38.9835 89.6646 36.3591 89.6646 32.9026C89.6646 29.4461 89.3445 27.1417 88.7684 25.9895C88.1923 24.8374 87.0402 24.2613 85.3119 24.2613C84.7358 24.2613 84.0957 24.5173 83.3916 24.9654C82.6875 25.4135 82.1754 26.0536 81.8554 26.8217C81.5353 27.5898 81.3433 29.6381 81.3433 32.9026C81.3433 36.1671 81.4713 38.1514 81.6634 38.7274C81.8554 39.3675 82.3035 40.0716 82.9436 40.9678C83.5836 41.8639 83.9677 42.504 83.9677 43.0161C83.9677 43.5282 83.6477 43.8482 83.0076 44.1042C82.3675 44.2963 80.6392 44.4243 77.8868 44.4243C75.1344 44.4243 73.5342 44.2963 73.1501 43.9762C72.702 43.7202 72.51 43.1441 72.51 42.44C72.51 42.1839 72.766 41.6719 73.3421 40.9678C73.9182 40.2637 74.2383 39.5596 74.4303 38.9835C74.5583 38.4074 74.6863 36.4231 74.6863 33.1586C74.6863 29.8941 74.4303 27.5898 73.8542 26.3736C73.3421 25.0934 72.318 24.4533 70.9098 24.4533C69.5016 24.4533 68.2854 25.0934 67.2612 26.4376C66.5571 27.3337 66.2371 28.6139 66.2371 30.2142C66.2371 31.8144 66.3011 33.6707 66.4931 35.847C66.6211 38.0233 66.8132 39.4955 67.0052 40.3917C67.1972 41.2878 67.2612 41.9919 67.2612 42.632C67.2612 43.2081 67.0052 43.7202 66.4291 44.0402C65.917 44.3603 64.6368 44.5523 62.5885 44.5523C58.684 44.5523 56.7637 43.8482 56.7637 42.44C56.7637 41.9919 57.1477 41.3518 57.9158 40.5197C58.684 39.6876 59.068 39.0475 59.196 38.6634C59.3241 38.2794 59.3241 36.4231 59.3241 33.1586C59.3241 29.8301 59.132 27.5898 58.684 26.3096C58.5559 25.9895 58.2359 25.4135 57.6598 24.5173C57.0837 23.6852 56.8277 22.9811 56.8277 22.533C56.8277 21.8929 57.3398 21.4449 58.4279 21.1248C60.3482 20.5487 62.0124 20.2927 63.5487 20.2927C64.0608 20.2927 64.6368 20.6768 65.2769 21.3809C65.981 22.085 66.4291 22.469 66.5571 22.469L67.3892 22.021C68.3494 21.4449 68.9895 21.1248 69.3095 20.9968C70.8458 20.2927 72.318 19.9727 73.6622 19.9727C75.0064 19.9727 76.0305 20.1007 76.7346 20.4207C77.3747 20.7408 78.1428 21.1888 78.911 21.7009C79.6791 22.277 80.3192 22.533 80.7032 22.533C81.0873 22.533 82.1754 22.149 83.9677 21.3169C85.76 20.4847 87.4242 20.1007 88.9604 20.1007C91.7128 20.1007 93.7612 21.3169 95.1054 23.8132C96.0015 25.4135 96.3855 29.7021 96.3855 36.5511C96.3855 38.2794 96.5136 39.3675 96.7056 39.7516C96.8976 40.1356 97.4097 40.5837 98.1778 41.1598C99.0099 41.4798 99.394 41.9279 99.394 42.1839Z" fill="#F18D51"/>
<path d="M145.609 42.1839C145.609 43.7202 143.369 44.5523 138.952 44.5523C137.48 44.5523 136.519 44.3603 135.943 44.0402C135.367 43.7202 135.111 43.0801 135.111 42.248L135.431 40.6477C135.751 38.9835 135.879 36.3591 135.879 32.9026C135.879 29.4461 135.559 27.1417 134.983 25.9895C134.407 24.8374 133.255 24.2613 131.527 24.2613C130.951 24.2613 130.311 24.5173 129.606 24.9654C128.902 25.4135 128.39 26.0536 128.07 26.8217C127.75 27.5898 127.558 29.6381 127.558 32.9026C127.558 36.1671 127.686 38.1514 127.878 38.7274C128.07 39.3675 128.518 40.0716 129.158 40.9678C129.798 41.8639 130.183 42.504 130.183 43.0161C130.183 43.5282 129.863 43.8482 129.222 44.1042C128.582 44.2963 126.854 44.4243 124.102 44.4243C121.349 44.4243 119.749 44.2963 119.365 43.9762C118.917 43.7202 118.725 43.1441 118.725 42.44C118.725 42.1839 118.981 41.6719 119.557 40.9678C120.133 40.2637 120.453 39.5596 120.645 38.9835C120.773 38.4074 120.901 36.4231 120.901 33.1586C120.901 29.8941 120.645 27.5898 120.069 26.3736C119.557 25.0934 118.533 24.4533 117.125 24.4533C115.716 24.4533 114.5 25.0934 113.476 26.4376C112.772 27.3337 112.452 28.6139 112.452 30.2142C112.452 31.8144 112.516 33.6707 112.708 35.847C112.836 38.0233 113.028 39.4955 113.22 40.3917C113.412 41.2878 113.476 41.9919 113.476 42.632C113.476 43.2081 113.22 43.7202 112.644 44.0402C112.132 44.3603 110.852 44.5523 108.803 44.5523C104.899 44.5523 102.979 43.8482 102.979 42.44C102.979 41.9919 103.363 41.3518 104.131 40.5197C104.899 39.6876 105.283 39.0475 105.411 38.6634C105.539 38.2794 105.539 36.4231 105.539 33.1586C105.539 29.8301 105.347 27.5898 104.899 26.3096C104.771 25.9895 104.451 25.4135 103.875 24.5173C103.299 23.6852 103.043 22.9811 103.043 22.533C103.043 21.8929 103.555 21.4449 104.643 21.1248C106.563 20.5487 108.227 20.2927 109.764 20.2927C110.276 20.2927 110.852 20.6768 111.492 21.3809C112.196 22.085 112.644 22.469 112.772 22.469L113.604 22.021C114.564 21.4449 115.204 21.1248 115.524 20.9968C117.061 20.2927 118.533 19.9727 119.877 19.9727C121.221 19.9727 122.245 20.1007 122.949 20.4207C123.59 20.7408 124.358 21.1888 125.126 21.7009C125.894 22.277 126.534 22.533 126.918 22.533C127.302 22.533 128.39 22.149 130.183 21.3169C131.975 20.4847 133.639 20.1007 135.175 20.1007C137.928 20.1007 139.976 21.3169 141.32 23.8132C142.216 25.4135 142.6 29.7021 142.6 36.5511C142.6 38.2794 142.728 39.3675 142.92 39.7516C143.112 40.1356 143.625 40.5837 144.393 41.1598C145.225 41.4798 145.609 41.9279 145.609 42.1839Z" fill="#F18D51"/>
<path d="M155.979 35.0146C155.979 36.6789 156.747 38.1511 158.348 39.3673C159.5 40.2634 161.036 40.7755 162.828 40.7755C163.66 40.7755 164.877 40.5194 166.477 40.0714C168.077 39.6233 169.037 39.3673 169.293 39.3673C170.061 39.3673 170.445 39.7513 170.445 40.5834C170.445 41.5436 169.421 42.5677 167.437 43.5279C165.453 44.552 163.34 45.0001 161.228 45.0001H160.076C160.012 45.0001 160.012 45.0001 159.948 45.0001C158.604 45.0001 157.195 44.7441 155.787 44.168C153.035 43.0798 151.051 41.2235 149.834 38.5351C149.002 36.6789 148.618 34.9506 148.618 33.2864V32.1342C148.618 30.4699 148.938 28.8057 149.514 27.2055C150.602 24.261 152.587 22.0847 155.403 20.8045C157.067 20.0364 158.86 19.6523 160.652 19.6523H161.228C163.98 19.6523 166.285 20.4845 168.141 22.2127C169.101 23.1089 169.869 24.197 170.445 25.4772C170.957 26.7574 171.214 28.0376 171.214 29.3818C171.214 30.726 170.573 31.5581 169.293 32.0062C167.501 32.5823 164.108 32.9023 159.244 32.9023C157.964 32.9023 157.067 33.0943 156.619 33.4144C156.235 33.6704 155.979 34.1825 155.979 35.0146ZM160.908 23.0448H160.204C159.18 23.0448 158.156 23.6209 157.195 24.7091C156.235 25.7973 155.723 27.1415 155.723 28.6137V28.9977C155.723 29.6378 156.043 29.9579 156.747 29.9579L157.003 30.0219H158.796H158.924L163.148 29.7658C163.404 29.7018 163.596 29.7018 163.66 29.7018C164.493 29.7018 164.941 29.2538 164.941 28.3576V27.5255C164.941 26.3733 164.557 25.3492 163.724 24.4531C162.892 23.5569 161.932 23.0448 160.908 23.0448Z" fill="#F18D51"/>
<path d="M174.364 9.60272C174.364 9.02664 174.812 8.57857 175.644 8.32253C178.013 7.61843 180.253 7.23438 182.429 7.23438C183.71 7.23438 184.414 7.81046 184.542 8.89862C184.606 9.15466 184.606 13.6353 184.606 22.4046C184.606 31.1099 184.734 36.2947 185.054 37.8309C185.374 39.4311 185.758 40.5193 186.27 41.0314C187.55 42.5036 188.19 43.2077 188.19 43.2717C188.19 44.1038 185.95 44.4879 181.469 44.4879H180.957H180.445C177.757 44.4879 176.157 44.4239 175.644 44.2959C175.132 44.1679 174.876 43.8478 174.876 43.3357C174.876 42.8237 175.26 42.0555 176.093 41.0954C176.925 40.0712 177.437 38.9831 177.629 37.8949C177.821 36.7428 177.949 32.5821 177.949 25.3491C177.949 18.116 177.821 14.0834 177.629 13.3153C177.373 12.5472 176.797 11.8431 175.836 11.203C174.876 10.4989 174.364 9.98678 174.364 9.60272Z" fill="#F18D51"/>
<path d="M17.1252 40.4162C21.7957 40.4163 23.8755 36.5242 23.8755 33.5662C23.8755 31.7099 28.6528 37.6329 27.2446 38.081C25.7257 42.6376 21.1012 44.6142 16.6425 44.6142C14.2741 44.6142 12.0338 44.1662 9.85746 43.27C5.63284 41.5418 2.75241 38.5973 1.21618 34.3727C0.384057 32.1964 0 29.892 0 27.4597V26.4355C0 24.0672 0.448067 21.7628 1.40821 19.5225C3.32849 14.9138 6.46496 11.7774 10.8176 10.1131C12.8019 9.345 15.1062 8.96094 17.6666 8.96094C18.4987 8.96094 19.3949 9.02495 20.483 9.21698C21.5712 9.345 22.9154 9.47302 24.5796 9.47302C26.2439 9.47302 27.5241 9.85707 28.5482 10.5612C29.5084 11.2653 30.0205 12.6095 30.0205 14.4658C30.0205 17.0261 29.5084 18.3063 28.4842 18.3063C28.0362 18.3063 26.884 17.6662 25.1557 16.322C23.4275 15.0418 22.0833 14.1457 21.1231 13.7616C20.163 13.3776 18.9468 13.1856 17.4106 13.1856C15.8744 13.1856 14.4661 13.5696 13.25 14.3377C9.53742 16.5781 7.74515 20.6107 7.74515 26.5636C7.74515 30.7882 8.7693 34.1807 10.7536 36.7411C12.6739 39.1734 14.7899 40.4162 17.1252 40.4162Z" fill="#F18D51"/>
<path d="M13.4424 28.485C13.4424 27.5889 14.7226 26.9488 15.3627 26.7568C17.347 26.1167 19.8433 25.4766 23.6839 25.4766C27.5245 25.4766 29.4448 26.1167 30.0849 26.7568C30.7249 27.3968 30.917 28.8691 30.917 28.8691L32.0051 39.1746C32.0051 39.1746 33.3493 41.4789 33.9254 42.3751C34.3095 42.9512 34.5655 43.7833 34.0534 44.2954C33.6054 44.7434 32.6452 44.4874 31.9411 44.1033C30.5329 43.2072 26.5643 38.2377 26.5643 38.2377L21.6996 42.8231L23.8119 38.9826V32.2616C23.8119 31.3654 22.2757 30.5973 21.3796 30.5333C19.5233 30.3413 16.5788 30.0852 15.2987 30.0212C14.7866 29.8932 13.4424 29.7652 13.4424 28.485Z" fill="#F18D51"/>
<path d="M38.0734 10.2438C37.9589 8.46837 38.492 6.95289 39.7894 5.59382C41.0869 4.23474 42.565 3.54971 44.1201 3.42199L45.6079 3.31233C46.0484 3.33877 46.4216 3.38328 46.7767 3.36037C48.2644 3.25071 49.5596 3.77059 50.8332 5.0187C52.0214 6.21747 52.7196 7.47527 52.8064 8.60794L52.9112 9.808C52.8486 10.1137 52.8354 10.334 52.8715 10.4688C52.9944 11.7363 52.3397 13.0676 51.0242 14.3593C49.7087 15.651 48.1813 16.4215 46.4058 16.536L44.9855 16.6276C43.2955 16.7914 41.7981 16.3257 40.4619 15.3833C39.1077 14.3736 38.4275 13.1832 38.354 11.8302L38.2275 11.3584L38.0734 10.2438Z" fill="#104E5B"/>
<path d="M45.8913 18.089L45.1975 18.0148C45.5242 14.9618 46.302 12.9396 47.0056 11.6112C46.5273 11.4899 46.0564 11.2991 45.6698 10.977C45.6698 10.977 45.6004 10.9696 45.6079 10.9002C45.0999 11.0564 44.5299 11.1358 43.9897 10.9376C43.8509 10.9228 43.6502 10.8311 43.5188 10.7469C43.41 12.4196 42.8403 14.464 41.5248 16.92L40.9301 16.5756C42.3224 14.0577 42.8301 11.9364 42.8547 10.3951C41.7419 9.64437 40.8199 8.42281 40.961 7.10446C41.0278 6.47998 41.335 6.23214 41.5506 6.18502C41.9124 6.08337 42.3139 6.2667 42.6237 6.65075C43.0574 7.18843 43.5011 8.28863 43.5311 9.97619C43.7318 10.0678 43.9326 10.1595 44.1407 10.1818C44.4109 10.2809 44.7578 10.318 45.1196 10.2163C44.8866 9.77032 44.7998 9.26977 44.8592 8.71467C45.0696 7.40375 45.6593 6.4843 46.3828 6.281C46.7446 6.17935 47.0148 6.27845 47.27 6.51631C47.7112 6.9846 47.6692 8.03282 47.1118 9.30662C46.9211 9.77748 46.6684 10.1715 46.2917 10.4119C46.6238 10.5878 47.0253 10.7712 47.4416 10.8157C47.5184 10.7537 47.5258 10.6844 47.6026 10.6224C48.7597 8.99167 49.9367 8.48599 50.6306 8.56024C51.255 8.62706 51.6194 9.15732 51.5451 9.85118C51.4783 10.4757 51.0026 10.9862 50.2716 11.2589C49.61 11.539 48.6857 11.6506 47.7837 11.5541C46.9116 13.1452 46.2032 15.1748 45.8913 18.089ZM50.4646 9.45484C49.9789 9.40287 49.0869 9.86887 48.1826 11.1055C48.8145 11.103 49.4538 11.031 49.9692 10.8055C50.3384 10.6344 50.7844 10.4014 50.8364 9.91571C50.8116 9.49196 50.534 9.46227 50.4646 9.45484ZM46.5787 7.07396L46.5093 7.06653C46.2169 7.17561 45.6644 7.74812 45.4688 8.92027C45.4243 9.33659 45.4565 9.69095 45.7044 9.99819C45.9348 9.8123 46.1801 9.48764 46.3634 9.08617C46.9208 7.81237 46.7795 7.16562 46.6555 7.01199C46.6407 7.15077 46.6481 7.08138 46.5787 7.07396ZM41.6771 6.97056C41.6771 6.97056 41.6003 7.03252 41.5706 7.31006C41.4741 8.21209 42.0169 9.04216 42.7901 9.68635C42.7008 8.55389 42.4355 7.75352 42.1257 7.36946C41.8778 7.06222 41.7465 6.97798 41.6771 6.97056Z" fill="white"/>
</svg>
