<svg width="16" height="16" viewBox="0 0 16 16" fill="none" xmlns="http://www.w3.org/2000/svg">
<g clip-path="url(#clip0_3793_31394)">
<path d="M8.00013 11.3168L8.98346 10.3335H10.3335V8.98346L11.3168 8.00013L10.3335 7.0168V5.6668H8.98346L8.00013 4.68346L7.0168 5.6668H5.6668V7.0168L4.68346 8.00013L5.6668 8.98346V10.3335H7.0168L8.00013 11.3168ZM8.00013 15.5335L5.7668 13.3335H2.6668V10.2335L0.466797 8.00013L2.6668 5.7668V2.6668H5.7668L8.00013 0.466797L10.2335 2.6668H13.3335V5.7668L15.5335 8.00013L13.3335 10.2335V13.3335H10.2335L8.00013 15.5335ZM8.00013 13.6668L9.6668 12.0001H12.0001V9.6668L13.6668 8.00013L12.0001 6.33346V4.00013H9.6668L8.00013 2.33346L6.33346 4.00013H4.00013V6.33346L2.33346 8.00013L4.00013 9.6668V12.0001H6.33346L8.00013 13.6668Z" fill="#104E5B" fill-opacity="0.5"/>
</g>
<defs>
<clipPath id="clip0_3793_31394">
<rect width="16" height="16" fill="white"/>
</clipPath>
</defs>
</svg>
