<svg width="16" height="16" viewBox="0 0 16 16" fill="none" xmlns="http://www.w3.org/2000/svg">
<path d="M2 11.9993V3.99935C2 3.63268 2.13056 3.31879 2.39167 3.05768C2.65278 2.79657 2.96667 2.66602 3.33333 2.66602H11.3333C11.7 2.66602 12.0139 2.79657 12.275 3.05768C12.5361 3.31879 12.6667 3.63268 12.6667 3.99935V7.38268C12.5556 7.36046 12.4444 7.34657 12.3333 7.34102C12.2222 7.33546 12.1111 7.33268 12 7.33268C11.8889 7.33268 11.7778 7.33546 11.6667 7.34102C11.5556 7.34657 11.4444 7.36046 11.3333 7.38268V3.99935H3.33333V10.666H8.05C8.02778 10.7771 8.01389 10.8882 8.00833 10.9993C8.00278 11.1105 8 11.2216 8 11.3327C8 11.4438 8.00278 11.5549 8.00833 11.666C8.01389 11.7771 8.02778 11.8882 8.05 11.9993H4H2ZM4.66667 6.66602H10V5.33268H4.66667V6.66602ZM4.66667 9.33268H8V7.99935H4.66667V9.33268Z" fill="#104E5B"/>
<rect x="9.25" y="10.75" width="5.75" height="1.25" fill="#104E5B"/>
<rect x="12.75" y="8.5" width="5.5" height="1.25" transform="rotate(90 12.75 8.5)" fill="#104E5B"/>
</svg>
