<svg width="32" height="32" viewBox="0 0 32 32" fill="none" xmlns="http://www.w3.org/2000/svg">
<path d="M8.00065 30.6668C7.26732 30.6668 6.63954 30.4057 6.11732 29.8835C5.5951 29.3613 5.33398 28.7335 5.33398 28.0002V13.3335C5.33398 12.6002 5.5951 11.9724 6.11732 11.4502C6.63954 10.9279 7.26732 10.6668 8.00065 10.6668H12.0007V13.3335H8.00065V28.0002H24.0007V13.3335H20.0007V10.6668H24.0007C24.734 10.6668 25.3618 10.9279 25.884 11.4502C26.4062 11.9724 26.6673 12.6002 26.6673 13.3335V28.0002C26.6673 28.7335 26.4062 29.3613 25.884 29.8835C25.3618 30.4057 24.734 30.6668 24.0007 30.6668H8.00065ZM14.6673 21.3335V6.4335L12.534 8.56683L10.6673 6.66683L16.0007 1.3335L21.334 6.66683L19.4673 8.56683L17.334 6.4335V21.3335H14.6673Z" fill="#104E5B"/>
</svg>
