<svg width="21" height="20" viewBox="0 0 21 20" fill="none" xmlns="http://www.w3.org/2000/svg">
<path d="M5.50065 19.1673C5.04232 19.1673 4.64996 19.0041 4.32357 18.6777C3.99718 18.3513 3.83398 17.959 3.83398 17.5006V8.33398C3.83398 7.87565 3.99718 7.48329 4.32357 7.1569C4.64996 6.83051 5.04232 6.66732 5.50065 6.66732H8.00065V8.33398H5.50065V17.5006H15.5007V8.33398H13.0007V6.66732H15.5007C15.959 6.66732 16.3513 6.83051 16.6777 7.1569C17.0041 7.48329 17.1673 7.87565 17.1673 8.33398V17.5006C17.1673 17.959 17.0041 18.3513 16.6777 18.6777C16.3513 19.0041 15.959 19.1673 15.5007 19.1673H5.50065ZM9.66732 13.334V4.02148L8.33398 5.35482L7.16732 4.16732L10.5007 0.833984L13.834 4.16732L12.6673 5.35482L11.334 4.02148V13.334H9.66732Z" fill="#242424"/>
</svg>
