<svg width="32" height="32" viewBox="0 0 32 32" fill="none" xmlns="http://www.w3.org/2000/svg">
<path d="M14.666 21.3334H17.3327V15.7334L19.466 17.8667L21.3327 16.0001L15.9993 10.6667L10.666 16.0001L12.5327 17.8667L14.666 15.7334V21.3334ZM15.9993 29.3334C14.1549 29.3334 12.4216 28.9834 10.7993 28.2834C9.17713 27.5834 7.76602 26.6334 6.56602 25.4334C5.36602 24.2334 4.41602 22.8223 3.71602 21.2001C3.01602 19.5779 2.66602 17.8445 2.66602 16.0001C2.66602 14.1556 3.01602 12.4223 3.71602 10.8001C4.41602 9.17786 5.36602 7.76675 6.56602 6.56675C7.76602 5.36675 9.17713 4.41675 10.7993 3.71675C12.4216 3.01675 14.1549 2.66675 15.9993 2.66675C17.8438 2.66675 19.5771 3.01675 21.1994 3.71675C22.8216 4.41675 24.2327 5.36675 25.4327 6.56675C26.6327 7.76675 27.5827 9.17786 28.2827 10.8001C28.9827 12.4223 29.3327 14.1556 29.3327 16.0001C29.3327 17.8445 28.9827 19.5779 28.2827 21.2001C27.5827 22.8223 26.6327 24.2334 25.4327 25.4334C24.2327 26.6334 22.8216 27.5834 21.1994 28.2834C19.5771 28.9834 17.8438 29.3334 15.9993 29.3334ZM15.9993 26.6667C18.9771 26.6667 21.4993 25.6334 23.566 23.5667C25.6327 21.5001 26.666 18.9779 26.666 16.0001C26.666 13.0223 25.6327 10.5001 23.566 8.43341C21.4993 6.36675 18.9771 5.33341 15.9993 5.33341C13.0216 5.33341 10.4993 6.36675 8.43268 8.43341C6.36602 10.5001 5.33268 13.0223 5.33268 16.0001C5.33268 18.9779 6.36602 21.5001 8.43268 23.5667C10.4993 25.6334 13.0216 26.6667 15.9993 26.6667Z" fill="#104E5B"/>
</svg>
