<svg width="16" height="17" viewBox="0 0 16 17" fill="none" xmlns="http://www.w3.org/2000/svg">
<g clip-path="url(#clip0_3816_18800)">
<path d="M8.00013 12.2465L8.98346 11.2632H10.3335V9.91315L11.3168 8.92982L10.3335 7.94648V6.59648H8.98346L8.00013 5.61315L7.0168 6.59648H5.6668V7.94648L4.68346 8.92982L5.6668 9.91315V11.2632H7.0168L8.00013 12.2465ZM8.00013 16.4632L5.7668 14.2632H2.6668V11.1632L0.466797 8.92982L2.6668 6.69648V3.59648H5.7668L8.00013 1.39648L10.2335 3.59648H13.3335V6.69648L15.5335 8.92982L13.3335 11.1632V14.2632H10.2335L8.00013 16.4632ZM8.00013 14.5965L9.6668 12.9298H12.0001V10.5965L13.6668 8.92982L12.0001 7.26315V4.92982H9.6668L8.00013 3.26315L6.33346 4.92982H4.00013V7.26315L2.33346 8.92982L4.00013 10.5965V12.9298H6.33346L8.00013 14.5965Z" fill="#F18D51"/>
</g>
<defs>
<clipPath id="clip0_3816_18800">
<rect width="16" height="16" fill="white" transform="translate(0 0.929688)"/>
</clipPath>
</defs>
</svg>
