<svg width="16" height="16" viewBox="0 0 16 16" fill="none" xmlns="http://www.w3.org/2000/svg">
<g clip-path="url(#clip0_4154_5153)">
<path d="M3.99935 2.00065L10.666 2.00065L10.666 10.6673L5.99935 15.334L5.16601 14.5007C5.08824 14.4229 5.02435 14.3173 4.97435 14.184C4.92435 14.0507 4.89935 13.9229 4.89935 13.8007L4.89935 13.5673L5.63268 10.6673L1.99935 10.6673C1.64379 10.6673 1.33268 10.534 1.06602 10.2673C0.799348 10.0007 0.666015 9.68954 0.666015 9.33398L0.666015 8.00065C0.666015 7.92287 0.674349 7.83954 0.691016 7.75065C0.707682 7.66176 0.732682 7.57843 0.766016 7.50065L2.76602 2.80065C2.86602 2.57843 3.03268 2.38954 3.26602 2.23398C3.49935 2.07843 3.74379 2.00065 3.99935 2.00065ZM11.9993 10.6673L11.9994 2.00065L14.666 2.00065L14.666 10.6673L11.9993 10.6673Z" fill="#104E5B"/>
</g>
<defs>
<clipPath id="clip0_4154_5153">
<rect width="16" height="16" fill="white" transform="translate(16 16) rotate(-180)"/>
</clipPath>
</defs>
</svg>
