<svg width="16" height="16" viewBox="0 0 16 16" fill="none" xmlns="http://www.w3.org/2000/svg">
<path d="M12.0007 13.9993H5.33398V5.33268L10.0007 0.666016L10.834 1.49935C10.9118 1.57713 10.9757 1.68268 11.0257 1.81602C11.0757 1.94935 11.1007 2.07713 11.1007 2.19935V2.43268L10.3673 5.33268H14.0007C14.3562 5.33268 14.6673 5.46602 14.934 5.73268C15.2007 5.99935 15.334 6.31046 15.334 6.66602V7.99935C15.334 8.07713 15.3257 8.16046 15.309 8.24935C15.2923 8.33824 15.2673 8.42157 15.234 8.49935L13.234 13.1993C13.134 13.4216 12.9673 13.6105 12.734 13.766C12.5007 13.9216 12.2562 13.9993 12.0007 13.9993ZM4.00065 5.33268V13.9993H1.33398V5.33268H4.00065Z" fill="#104E5B"/>
</svg>
