<svg width="16" height="16" viewBox="0 0 16 16" fill="none" xmlns="http://www.w3.org/2000/svg">
<path d="M10.2007 11.134L11.134 10.2007L8.66732 7.73398V4.66732H7.33398V8.26732L10.2007 11.134ZM8.00065 14.6673C7.07843 14.6673 6.21176 14.4923 5.40065 14.1423C4.58954 13.7923 3.88398 13.3173 3.28398 12.7173C2.68398 12.1173 2.20898 11.4118 1.85898 10.6007C1.50898 9.78954 1.33398 8.92287 1.33398 8.00065C1.33398 7.07843 1.50898 6.21176 1.85898 5.40065C2.20898 4.58954 2.68398 3.88398 3.28398 3.28398C3.88398 2.68398 4.58954 2.20898 5.40065 1.85898C6.21176 1.50898 7.07843 1.33398 8.00065 1.33398C8.92287 1.33398 9.78954 1.50898 10.6007 1.85898C11.4118 2.20898 12.1173 2.68398 12.7173 3.28398C13.3173 3.88398 13.7923 4.58954 14.1423 5.40065C14.4923 6.21176 14.6673 7.07843 14.6673 8.00065C14.6673 8.92287 14.4923 9.78954 14.1423 10.6007C13.7923 11.4118 13.3173 12.1173 12.7173 12.7173C12.1173 13.3173 11.4118 13.7923 10.6007 14.1423C9.78954 14.4923 8.92287 14.6673 8.00065 14.6673ZM8.00065 13.334C9.47843 13.334 10.7368 12.8145 11.7757 11.7757C12.8145 10.7368 13.334 9.47843 13.334 8.00065C13.334 6.52287 12.8145 5.26454 11.7757 4.22565C10.7368 3.18676 9.47843 2.66732 8.00065 2.66732C6.52287 2.66732 5.26454 3.18676 4.22565 4.22565C3.18676 5.26454 2.66732 6.52287 2.66732 8.00065C2.66732 9.47843 3.18676 10.7368 4.22565 11.7757C5.26454 12.8145 6.52287 13.334 8.00065 13.334Z" fill="#104E5B" fill-opacity="0.5"/>
</svg>
