<svg width="16" height="16" viewBox="0 0 16 16" fill="none" xmlns="http://www.w3.org/2000/svg">
<path d="M7.99935 10.666C8.83268 10.666 9.54102 10.3743 10.1243 9.79102C10.7077 9.20768 10.9993 8.49935 10.9993 7.66602C10.9993 6.83268 10.7077 6.12435 10.1243 5.54102C9.54102 4.95768 8.83268 4.66602 7.99935 4.66602C7.16602 4.66602 6.45768 4.95768 5.87435 5.54102C5.29102 6.12435 4.99935 6.83268 4.99935 7.66602C4.99935 8.49935 5.29102 9.20768 5.87435 9.79102C6.45768 10.3743 7.16602 10.666 7.99935 10.666ZM7.99935 9.46602C7.49935 9.46602 7.07435 9.29102 6.72435 8.94102C6.37435 8.59102 6.19935 8.16602 6.19935 7.66602C6.19935 7.16602 6.37435 6.74102 6.72435 6.39102C7.07435 6.04102 7.49935 5.86602 7.99935 5.86602C8.49935 5.86602 8.92435 6.04102 9.27435 6.39102C9.62435 6.74102 9.79935 7.16602 9.79935 7.66602C9.79935 8.16602 9.62435 8.59102 9.27435 8.94102C8.92435 9.29102 8.49935 9.46602 7.99935 9.46602ZM7.99935 12.666C6.37713 12.666 4.89935 12.2132 3.56602 11.3077C2.23268 10.4021 1.26602 9.18824 0.666016 7.66602C1.26602 6.14379 2.23268 4.9299 3.56602 4.02435C4.89935 3.11879 6.37713 2.66602 7.99935 2.66602C9.62157 2.66602 11.0993 3.11879 12.4327 4.02435C13.766 4.9299 14.7327 6.14379 15.3327 7.66602C14.7327 9.18824 13.766 10.4021 12.4327 11.3077C11.0993 12.2132 9.62157 12.666 7.99935 12.666ZM7.99935 11.3327C9.2549 11.3327 10.4077 11.0021 11.4577 10.341C12.5077 9.6799 13.3105 8.78824 13.866 7.66602C13.3105 6.54379 12.5077 5.65213 11.4577 4.99102C10.4077 4.3299 9.2549 3.99935 7.99935 3.99935C6.74379 3.99935 5.59102 4.3299 4.54102 4.99102C3.49102 5.65213 2.68824 6.54379 2.13268 7.66602C2.68824 8.78824 3.49102 9.6799 4.54102 10.341C5.59102 11.0021 6.74379 11.3327 7.99935 11.3327Z" fill="#104E5B" fill-opacity="0.5"/>
</svg>
